<svg width="214" height="40" viewBox="0 0 214 40" fill="none" xmlns="http://www.w3.org/2000/svg">
<path d="M57.7212 21.8648H51.1997L49.6346 26.489H46.8716L53.0486 9.38035H55.9174L62.0944 26.489H59.2844L57.7212 21.8648ZM51.8748 19.7313H57.0442L54.4951 12.2259H54.4239L51.8748 19.7313ZM75.7445 20.2532C75.7445 24.1297 73.6684 26.6194 70.5391 26.6194C68.76 26.6194 67.351 25.8248 66.6147 24.4362H66.5554V30.6136H63.994V14.0136H66.4719V16.0896H66.5179C67.2291 14.7499 68.7472 13.8855 70.4902 13.8855C73.658 13.8855 75.7445 16.388 75.7445 20.2532ZM73.1133 20.2532C73.1133 17.7273 71.8091 16.0678 69.8175 16.0678C67.8615 16.0678 66.5449 17.7634 66.5449 20.2532C66.5449 22.7667 67.8615 24.4513 69.8175 24.4513C71.8091 24.4494 73.1133 22.8003 73.1133 20.2532ZM89.5701 20.2532C89.5701 24.1297 87.4945 26.6194 84.3647 26.6194C82.5856 26.6194 81.1761 25.8248 80.4403 24.4362H80.3815V30.6136H77.8201V14.0136H80.2975V16.0896H80.3435C81.0547 14.7499 82.5728 13.8855 84.3163 13.8855C87.4822 13.8855 89.5701 16.388 89.5701 20.2532ZM86.9375 20.2532C86.9375 17.7273 85.6333 16.0678 83.6417 16.0678C81.6857 16.0678 80.3691 17.7634 80.3691 20.2532C80.3691 22.7667 81.6857 24.4513 83.6417 24.4513C85.6329 24.4494 86.9375 22.8003 86.9375 20.2532ZM91.7387 9.38035H94.3001V26.489H91.7387V9.38035ZM108.155 22.8255C107.811 25.0904 105.606 26.6432 102.783 26.6432C99.1553 26.6432 96.9028 24.2118 96.9028 20.3125C96.9028 16.4004 99.1681 13.8617 102.676 13.8617C106.127 13.8617 108.296 16.2324 108.296 20.0155V20.8927H99.4855V21.0464C99.4855 23.1804 100.825 24.5794 102.841 24.5794C104.262 24.5794 105.377 23.9039 105.722 22.825L108.155 22.8255ZM99.4998 19.1027H105.736C105.677 17.1931 104.456 15.9378 102.678 15.9378C100.909 15.9378 99.6283 17.2164 99.4998 19.1027ZM122.894 9.38035C126.214 9.38035 128.527 11.6685 128.527 14.9999C128.527 18.3436 126.167 20.6427 122.813 20.6427H119.137V26.4871H116.48V9.37988L122.894 9.38035ZM119.136 18.4153H122.184C124.495 18.4153 125.811 17.1704 125.811 15.0127C125.811 12.8546 124.495 11.622 122.196 11.622H119.138V18.4153H119.136ZM129.727 20.2532C129.727 16.3287 132.038 13.8617 135.643 13.8617C139.258 13.8617 141.558 16.3268 141.558 20.2532C141.558 24.1899 139.27 26.6446 135.643 26.6446C132.015 26.6451 129.727 24.188 129.727 20.2532ZM138.951 20.2532C138.951 17.5613 137.719 15.9734 135.643 15.9734C133.568 15.9734 132.335 17.5736 132.335 20.2532C132.335 22.9555 133.568 24.5329 135.643 24.5329C137.719 24.5329 138.951 22.9555 138.951 20.2532ZM143.333 20.2532C143.333 16.4004 145.455 13.8874 148.549 13.8874C150.339 13.8874 151.75 14.7157 152.461 16.0915H152.507V9.38083H155.08V26.489H152.59V24.3678H152.544C151.807 25.7897 150.385 26.6204 148.571 26.6204C145.455 26.6194 143.333 24.1064 143.333 20.2532ZM145.951 20.2532C145.951 22.8146 147.256 24.4513 149.248 24.4513C151.216 24.4513 152.531 22.7913 152.531 20.2532C152.531 17.7402 151.214 16.0678 149.248 16.0678C147.256 16.0659 145.951 17.715 145.951 20.2532ZM166.193 18.308C165.968 16.992 164.936 16.0076 163.253 16.0076C161.284 16.0076 159.981 17.6557 159.981 20.2518C159.981 22.9076 161.297 24.5078 163.276 24.5078C164.866 24.5078 165.909 23.7131 166.193 22.268H168.66C168.375 24.8883 166.277 26.6427 163.253 26.6427C159.697 26.6427 157.373 24.2118 157.373 20.2518C157.373 16.3752 159.696 13.8603 163.23 13.8603C166.431 13.8603 168.422 15.8752 168.637 18.3061H166.194L166.193 18.308ZM170.28 22.9199C170.28 20.739 171.953 19.4585 175.059 19.2687L178.378 19.0794V18.1311C178.378 16.7197 177.442 15.962 175.816 15.962C174.476 15.962 173.493 16.6495 173.29 17.716H170.895C170.966 15.4871 173.053 13.8627 175.888 13.8627C178.946 13.8627 180.925 15.4634 180.925 17.9408V26.4899H178.473V24.4395H178.413C177.713 25.7792 176.159 26.6683 174.477 26.6683C171.999 26.6678 170.28 25.1364 170.28 22.9199ZM178.377 21.8178V20.8571L175.389 21.0464C173.729 21.1408 172.853 21.7818 172.853 22.8606C172.853 23.9039 173.765 24.6397 175.189 24.6397C177.002 24.6387 178.377 23.4309 178.377 21.8178ZM188.415 13.8727C191.176 13.8727 193.155 15.4013 193.216 17.6073H190.809C190.701 16.5057 189.766 15.8282 188.342 15.8282C186.956 15.8282 186.031 16.4678 186.031 17.4413C186.031 18.188 186.648 18.6866 187.939 19.0064L190.038 19.4922C192.551 20.0957 193.499 21.0208 193.499 22.8468C193.499 25.0994 191.365 26.6403 188.317 26.6403C185.377 26.6403 183.398 25.135 183.209 22.8573H185.745C185.924 24.0538 186.885 24.6952 188.437 24.6952C189.966 24.6952 190.929 24.0661 190.929 23.0717C190.929 22.2998 190.454 21.8857 189.15 21.5526L186.922 21.008C184.669 20.4614 183.53 19.3129 183.53 17.5817C183.529 15.3809 185.508 13.8727 188.415 13.8727ZM199.164 11.0646V14.0155H201.535V16.0431H199.164V22.9204C199.164 23.9883 199.639 24.4855 200.683 24.4855C200.944 24.4855 201.358 24.4494 201.524 24.4262V26.4411C201.24 26.5127 200.67 26.5587 200.102 26.5587C197.577 26.5587 196.592 25.6108 196.592 23.1917V16.0431H194.777V14.0155H196.592V11.0646H199.164ZM208.405 13.8727C211.167 13.8727 213.146 15.4013 213.206 17.6073H210.8C210.692 16.5057 209.757 15.8282 208.334 15.8282C206.947 15.8282 206.022 16.4678 206.022 17.4413C206.022 18.188 206.638 18.6866 207.93 19.0064L210.028 19.4922C212.541 20.0957 213.49 21.0208 213.49 22.8468C213.49 25.0994 211.355 26.6403 208.308 26.6403C205.368 26.6403 203.389 25.135 203.2 22.8573H205.736C205.915 24.0538 206.876 24.6952 208.428 24.6952C209.957 24.6952 210.92 24.0661 210.92 23.0717C210.92 22.2998 210.445 21.8857 209.141 21.5526L206.912 21.008C204.659 20.4614 203.522 19.3129 203.522 17.5817C203.519 15.3809 205.498 13.8727 208.405 13.8727Z" fill="#3C4043"/>
<path d="M39.2096 34.6694C38.2271 36.9974 36.2558 38.7655 33.8349 39.4905C32.5506 39.871 30.9698 40 29.0015 40H11.0014C9.03301 40 7.45176 39.871 6.16797 39.4905C3.74462 38.7693 1.77244 37.0002 0.793235 34.6694C0.00901445 32.6796 0 30.4214 0 28.9996V10.9995C0 9.57765 0.00759044 7.31987 0.791336 5.33014C1.77387 3.00167 3.74509 1.23398 6.16607 0.508584C7.45081 0.128097 9.03111 0 10.9995 0H29C30.9684 0 32.5492 0.128097 33.8334 0.508584C36.2568 1.22971 38.229 2.9993 39.2082 5.33014C39.991 7.31987 39.9995 9.57765 39.9995 10.9995V28.9991C40.0014 30.4214 39.9919 32.6796 39.2096 34.6694Z" fill="url(#paint0_linear_3108_573)"/>
<path d="M22.9014 22.9911C22.3008 22.3582 21.2476 21.9507 20.0027 21.9507C18.7578 21.9507 17.7036 22.3563 17.1035 22.9911C16.796 23.3 16.6077 23.7084 16.5731 24.1425C16.4711 25.0767 16.528 25.8827 16.6376 27.1689C16.741 28.3948 16.9393 30.0306 17.1984 31.6953C17.3824 32.88 17.5324 33.5195 17.668 33.9783C17.8882 34.7198 18.7132 35.3697 20.0027 35.3697C21.2922 35.3697 22.1157 34.7212 22.3373 33.9783C22.473 33.5204 22.6234 32.8814 22.807 31.6953C23.066 30.0306 23.2643 28.3962 23.3682 27.1689C23.4769 25.8827 23.5338 25.0776 23.4323 24.1425C23.3976 23.708 23.2098 23.3 22.9014 22.9911ZM16.7315 17.3512C16.7315 19.1597 18.1975 20.6256 20.0055 20.6256C21.8135 20.6256 23.2795 19.1602 23.2795 17.3512C23.2795 15.5432 21.8135 14.0772 20.0055 14.0772C18.1975 14.0772 16.7315 15.5432 16.7315 17.3512ZM19.9647 4.4317C12.309 4.45305 6.03519 10.6642 5.94031 18.3199C5.86345 24.5216 9.82203 29.8271 15.3505 31.7703C15.4492 31.8049 15.5573 31.7532 15.592 31.6541C15.6019 31.6256 15.6048 31.5952 15.601 31.5649C15.5274 31.0833 15.4596 30.6004 15.397 30.1241C15.3761 29.9561 15.2679 29.8119 15.1133 29.7436C10.6001 27.7742 7.69899 23.3014 7.74122 18.3774C7.80574 11.7169 13.245 6.28622 19.9059 6.23261C26.7153 6.17757 32.2741 11.7022 32.2741 18.4988C32.2684 23.3801 29.3744 27.7942 24.9001 29.7455C24.7455 29.8138 24.6378 29.958 24.616 30.1259C24.5529 30.607 24.485 31.0867 24.4124 31.5658C24.3963 31.6683 24.4665 31.7641 24.5685 31.7798C24.5998 31.785 24.6311 31.7817 24.6601 31.7708C30.1349 29.8456 34.0717 24.6226 34.0717 18.4974C34.0726 10.7282 27.7405 4.40987 19.9647 4.4317ZM19.7114 10.8853C23.9228 10.7235 27.4677 14.006 27.6295 18.2175C27.6333 18.3124 27.6352 18.4072 27.6352 18.5016C27.6361 20.6076 26.7637 22.6187 25.2251 24.0571C25.0999 24.1753 25.033 24.3423 25.041 24.515C25.0695 25.0382 25.0591 25.5473 25.0249 26.1204C25.0192 26.2229 25.0975 26.3106 25.2 26.3163C25.2403 26.3192 25.2806 26.3073 25.3143 26.2855C27.8904 24.5311 29.4328 21.6172 29.4332 18.5007C29.428 13.292 25.2014 9.07345 19.9932 9.0782C19.875 9.0782 19.756 9.08056 19.6374 9.08578C14.6517 9.2784 10.6509 13.3888 10.5882 18.3792C10.5484 21.5389 12.095 24.5088 14.7072 26.2874C14.7911 26.3448 14.9055 26.3235 14.9629 26.2395C14.9861 26.2053 14.9975 26.1641 14.9951 26.1228C14.9572 25.5881 14.9515 25.0511 14.9785 24.5154C14.988 24.3427 14.9207 24.1753 14.7945 24.0576C13.2037 22.5713 12.3275 20.4729 12.3887 18.2972C12.5101 14.2888 15.7053 11.0546 19.7114 10.8853Z" fill="white"/>
<defs>
<linearGradient id="paint0_linear_3108_573" x1="20.0009" y1="0.0011544" x2="20.0009" y2="39.9978" gradientUnits="userSpaceOnUse">
<stop stop-color="#F452FF"/>
<stop offset="1" stop-color="#832BC1"/>
</linearGradient>
</defs>
</svg>
