<svg width="512" height="110" viewBox="0 0 512 110" fill="none" xmlns="http://www.w3.org/2000/svg">
<g clip-path="url(#clip0_3024_1021)">
<path d="M251.767 0.135101H26.0733C12.0832 0.135101 0.741943 11.4763 0.741943 25.4664V25.4693C0.741943 39.4594 12.0832 50.8007 26.0733 50.8007H251.767C265.757 50.8007 277.098 39.4594 277.098 25.4693V25.4664C277.098 11.4763 265.757 0.135101 251.767 0.135101Z" fill="white"/>
<path d="M486.669 58.4768H190.352C176.362 58.4768 165.021 69.818 165.021 83.8081V83.811C165.021 97.8012 176.362 109.142 190.352 109.142H486.669C500.659 109.142 512 97.8012 512 83.811V83.8081C512 69.818 500.659 58.4768 486.669 58.4768Z" fill="#201B20"/>
<path d="M405.299 0.135101H310.106C296.116 0.135101 284.775 11.4763 284.775 25.4664V25.4693C284.775 39.4594 296.116 50.8007 310.106 50.8007H405.299C419.289 50.8007 430.63 39.4594 430.63 25.4693V25.4664C430.63 11.4763 419.289 0.135101 405.299 0.135101Z" fill="white"/>
<path d="M28.3787 42.4412V8.49457H51.0873L56.1989 13.6062V26.6876L51.0873 31.7993H36.994V42.4383H28.3816L28.3787 42.4412ZM36.9911 25.26H46.249L47.8598 23.6492V16.6476L46.249 15.0367H36.9911V25.2629V25.26Z" fill="#201B20"/>
<path d="M64.326 42.4412L59.2144 37.3296V13.6062L64.326 8.49457H84.2229L89.3346 13.6062V37.3267L84.2229 42.4383H64.326V42.4412ZM69.4841 35.9019H79.1578L80.7687 34.2911V16.6505L79.0648 15.0397H69.4841L67.8268 16.6505V34.2911L69.4841 35.9019Z" fill="#201B20"/>
<path d="M94.8589 42.4412V8.49457H117.012L124.06 15.5427V35.3931L117.012 42.4412H94.8589ZM103.471 35.9019H113.282L115.724 33.4595V17.4763L113.282 15.0338H103.471V35.899V35.9019Z" fill="#201B20"/>
<path d="M133.324 42.4412L128.212 37.3296V13.6062L133.324 8.49457H150.781L155.939 13.6062V20.4682H147.556V16.6447L145.899 15.0338H138.485L136.827 16.6447V34.2853L138.485 35.8961H146.175L147.879 34.2853V30.4152H156.215V37.3238L151.104 42.4354H133.324V42.4412Z" fill="#201B20"/>
<path d="M156.766 42.4412L166.716 8.49457H180.719L190.669 42.4412H181.551L179.847 35.6693H167.594L165.89 42.4412H156.769H156.766ZM169.295 29.037H178.137L174.543 14.9902H172.886L169.292 29.037H169.295Z" fill="#201B20"/>
<path d="M193.053 42.4413V35.5327H210.74L212.354 33.9219V30.1449L210.74 28.534H196.83L191.718 23.3759V13.6121L196.83 8.50043H219.029V15.409H201.805L200.194 17.0198V20.0147L201.805 21.6255H215.715L220.826 26.7371V37.3296L215.715 42.4413H193.053Z" fill="#201B20"/>
<path d="M231.571 42.4412V15.4962H222.083V8.49457H249.674V15.4962H240.186V42.4412H231.574H231.571Z" fill="#201B20"/>
<path d="M192.655 100.783V66.8363H215.317L220.429 71.9479V80.1009L218.126 82.4503L221.767 85.858V95.6684L216.655 100.78H192.658L192.655 100.783ZM201.268 80.0108H210.572L212.186 78.3999V74.9922L210.572 73.3814H201.268V80.0137V80.0108ZM201.268 94.2437H211.54L213.151 92.6328V87.6113L211.54 86.0005H201.268V94.2466V94.2437Z" fill="#FF4405"/>
<path d="M227.065 100.783V66.8363H252.858V73.8379H235.677V80.1009H251.152V86.5966H235.677V93.7813H252.858V100.783H227.065Z" fill="#FF4405"/>
<path d="M257.223 100.783V93.5516L272.883 75.4487V73.8379H258.328V66.8363H284.397V74.0676L268.783 92.1676V93.7784H284.397V100.78H257.223V100.783Z" fill="#FF4405"/>
<path d="M311.469 64.1642L316.305 56.9329H324.687L317.779 64.1642H311.469ZM301.2 100.78V93.8715H318.884L320.498 92.2606V88.4836L318.884 86.8728H304.977L299.865 81.7147V71.9508L304.977 66.8392H327.176V73.7477H309.949L308.338 75.3586V78.3534L309.949 79.9642H323.859L328.97 85.0759V95.6684L323.859 100.78H301.2Z" fill="#FF4405"/>
<path d="M338.443 100.783L333.332 95.6713V71.9508L338.443 66.8392H355.898L361.056 71.9508V78.8128H352.673V74.9893L351.016 73.3784H343.598L341.938 74.9893V92.6299L343.598 94.2407H351.289L352.993 92.6299V88.7598H361.329V95.6684L356.218 100.78H338.437L338.443 100.783Z" fill="#FF4405"/>
<path d="M363.728 100.783V94.2873H367.505L367.412 73.329H363.728V66.8334H379.389V73.329H375.658L375.565 94.2873H379.389V100.783H363.728Z" fill="#FF4405"/>
<path d="M384.451 100.783V66.8363H410.245V73.8379H393.063V80.1009H408.538V86.5966H393.063V93.7813H410.245V100.783H384.451Z" fill="#FF4405"/>
<path d="M415.758 100.783V66.8363H424.188L432.94 87.4718L441.689 66.8363H450.071V100.783H442.058V82.1275L434.966 99.3088H430.913L423.775 82.1275V100.783H415.761H415.758Z" fill="#FF4405"/>
<path d="M464.615 100.783V88.8994L461.207 85.9511L453.284 66.8363H463.187L468.069 82.4503H469.73L474.611 66.8363H484.512L476.592 85.9511L473.181 88.8994V100.783H464.615Z" fill="#FF4405"/>
<path d="M317.524 42.4413L312.412 37.3297V13.6063L317.524 8.49469H337.421L342.533 13.6063V37.3268L337.421 42.4384H317.524V42.4413ZM322.682 35.9021H332.353L333.967 34.2912V16.6506L332.263 15.0398H322.682L321.025 16.6506V34.2912L322.682 35.9021Z" fill="#201B20"/>
<path d="M358.009 42.4412V35.9455H361.786L361.693 14.9873H358.009V8.49161H373.669V14.9873H369.939L369.846 35.9455H373.669V42.4412H358.009Z" fill="#201B20"/>
<path d="M385.225 42.4412V15.4961H375.737V8.49451H403.328V15.4961H393.84V42.4412H385.225Z" fill="#201B20"/>
</g>
<defs>
<clipPath id="clip0_3024_1021">
<rect width="511.258" height="109.007" fill="white" transform="translate(0.741943 0.135101)"/>
</clipPath>
</defs>
</svg>
