<svg width="126" height="40" viewBox="0 0 126 40" fill="none" xmlns="http://www.w3.org/2000/svg">
<path d="M19.488 0C8.72536 0 0 8.91575 0 19.9135C0 30.9118 8.72536 39.8268 19.488 39.8268C30.2518 39.8268 38.9762 30.9118 38.9762 19.9135C38.9762 8.9165 30.2518 0.001 19.4877 0.001L19.488 0ZM28.4252 28.721C28.342 28.8603 28.2328 28.9814 28.1038 29.0775C27.9747 29.1735 27.8284 29.2426 27.6732 29.2809C27.518 29.3191 27.3569 29.3257 27.1992 29.3002C27.0416 29.2747 26.8903 29.2178 26.7542 29.1325C22.1787 26.2765 16.4185 25.6297 9.63499 27.2135C9.32088 27.2865 8.99126 27.2291 8.71858 27.0538C8.44589 26.8786 8.25244 26.5999 8.18076 26.279C8.1451 26.1201 8.14046 25.9556 8.16708 25.7949C8.19371 25.6341 8.25109 25.4804 8.33594 25.3423C8.42079 25.2043 8.53145 25.0847 8.66157 24.9904C8.7917 24.8961 8.93875 24.8289 9.0943 24.7927C16.5179 23.0595 22.8855 23.8057 28.0225 27.0138C28.1587 27.0988 28.2772 27.2105 28.3711 27.3423C28.4651 27.4742 28.5327 27.6237 28.5701 27.7823C28.6074 27.9408 28.6139 28.1054 28.589 28.2665C28.5641 28.4276 28.5083 28.5822 28.4249 28.7213M30.8103 23.299C30.3702 24.0295 29.4349 24.2602 28.7202 23.8107C23.4822 20.5207 15.4969 19.5677 9.30103 21.4897C8.91535 21.609 8.49914 21.567 8.14369 21.3731C7.78825 21.1791 7.52258 20.8491 7.40496 20.4552C7.2887 20.0612 7.33005 19.6361 7.51996 19.2732C7.70986 18.9103 8.03283 18.639 8.41808 18.519C15.4957 16.3245 24.2942 17.3875 30.3098 21.1647C31.0242 21.6142 31.25 22.5702 30.8101 23.2992M31.0146 17.653C24.7346 13.8405 14.3715 13.49 8.37477 15.35C7.41181 15.6485 6.39356 15.093 6.10193 14.109C5.96163 13.6363 6.01077 13.126 6.23856 12.6903C6.46634 12.2546 6.85412 11.9291 7.31664 11.7855C14.2005 9.65 25.6442 10.0625 32.8755 14.4493C33.0816 14.5738 33.2616 14.7387 33.4053 14.9345C33.5489 15.1303 33.6533 15.3531 33.7125 15.5902C33.7718 15.8273 33.7846 16.074 33.7504 16.3162C33.7162 16.5583 33.6355 16.7912 33.513 17.0015C33.0012 17.8865 31.8795 18.1782 31.0161 17.6528L31.0146 17.653ZM53.0198 18.3835C49.6549 17.5635 49.0569 16.9883 49.0569 15.779C49.0569 14.6365 50.1087 13.8678 51.6747 13.8678C53.1921 13.8678 54.6955 14.4517 56.2732 15.6535C56.3197 15.6897 56.3802 15.7042 56.4384 15.6947C56.4676 15.6903 56.4957 15.6799 56.5209 15.6641C56.5461 15.6484 56.568 15.6276 56.5852 15.603L58.228 13.2365C58.2605 13.1896 58.2743 13.1318 58.2665 13.0749C58.2587 13.018 58.23 12.9663 58.1862 12.9303C56.3082 11.391 54.1952 10.6427 51.7236 10.6427C48.091 10.6427 45.5522 12.8705 45.5522 16.0583C45.5522 19.4765 47.7419 20.687 51.526 21.6213C54.7444 22.379 55.2888 23.0138 55.2888 24.1488C55.2888 25.4067 54.1903 26.189 52.4219 26.189C50.4578 26.189 48.8543 25.5115 47.0625 23.9275C47.0178 23.8889 46.9604 23.8694 46.902 23.873C46.8729 23.8752 46.8446 23.8832 46.8186 23.8966C46.7926 23.91 46.7695 23.9286 46.7506 23.9513L44.9076 26.1912C44.8706 26.2362 44.8521 26.294 44.856 26.3526C44.8599 26.4112 44.886 26.4659 44.9286 26.5053C47.0136 28.4078 49.578 29.4112 52.3473 29.4112C56.2617 29.4112 58.7912 27.2257 58.7912 23.842C58.7981 20.9867 57.1251 19.4055 53.0269 18.3867L53.0198 18.3835ZM67.6482 14.9925C65.9518 14.9925 64.5602 15.6755 63.4106 17.075V15.5C63.4106 15.3755 63.3127 15.2743 63.1918 15.2743H60.1782C60.12 15.2746 60.0643 15.2986 60.0233 15.3409C59.9823 15.3831 59.9593 15.4402 59.9595 15.4998V33.002C59.9595 33.1255 60.0573 33.2277 60.1782 33.2277H63.1918C63.2501 33.2274 63.3058 33.2034 63.3468 33.1611C63.3878 33.1187 63.4108 33.0615 63.4106 33.002V27.4778C64.5602 28.7928 65.9518 29.4373 67.648 29.4373C70.8016 29.4373 73.9943 26.9572 73.9943 22.2157C73.999 17.4732 70.806 14.9923 67.6504 14.9923L67.6482 14.9925ZM70.4896 22.2157C70.4896 24.629 69.0352 26.315 66.95 26.315C64.8905 26.315 63.3359 24.553 63.3359 22.2157C63.3359 19.8783 64.8905 18.1165 66.95 18.1165C69.0002 18.1165 70.4896 19.84 70.4896 22.2157ZM82.1741 14.9923C78.1133 14.9923 74.9321 18.1873 74.9321 22.2673C74.9321 26.303 78.0923 29.4632 82.1252 29.4632C86.1999 29.4632 89.3904 26.2792 89.3904 22.2155C89.3904 18.1655 86.2209 14.993 82.1741 14.993V14.9923ZM82.1741 26.3385C80.0145 26.3385 78.3856 24.5645 78.3856 22.2143C78.3856 19.8533 79.9587 18.1397 82.1252 18.1397C84.2987 18.1397 85.9369 19.913 85.9369 22.2658C85.9369 24.6265 84.3545 26.3385 82.1741 26.3385ZM98.0612 15.274H94.7452V11.81C94.7452 11.6858 94.6473 11.5845 94.5265 11.5845H91.513C91.4545 11.5846 91.3984 11.6084 91.357 11.6507C91.3155 11.6929 91.2921 11.7502 91.2919 11.81V15.2738H89.8445C89.7863 15.2741 89.7306 15.2981 89.6896 15.3404C89.6486 15.3826 89.6257 15.4397 89.6258 15.4993V18.1453C89.6256 18.2048 89.6485 18.262 89.6895 18.3043C89.7305 18.3466 89.7862 18.3706 89.8445 18.371H91.2919V25.2185C91.2919 27.984 92.6394 29.387 95.2993 29.387C96.379 29.387 97.2749 29.1585 98.1197 28.6688C98.1539 28.6496 98.1823 28.6214 98.202 28.587C98.2217 28.5527 98.2319 28.5135 98.2315 28.4737V25.953C98.2312 25.9149 98.2215 25.8774 98.2032 25.8442C98.1849 25.8109 98.1586 25.783 98.1268 25.763C98.0951 25.7421 98.0586 25.7302 98.0209 25.7285C97.9833 25.7268 97.9459 25.7353 97.9125 25.7533C97.3331 26.0508 96.7724 26.1885 96.1439 26.1885C95.1782 26.1885 94.7454 25.739 94.7454 24.7355V18.3725H98.0615C98.1198 18.3721 98.1755 18.3481 98.2165 18.3058C98.2575 18.2635 98.2804 18.2063 98.2802 18.1467V15.5007C98.2812 15.4712 98.2763 15.4418 98.2659 15.4143C98.2554 15.3867 98.2396 15.3617 98.2194 15.3406C98.1992 15.3194 98.1749 15.3028 98.1482 15.2915C98.1215 15.2802 98.0928 15.2746 98.0639 15.275L98.0612 15.274ZM109.613 15.2875V14.862C109.613 13.6105 110.083 13.0525 111.135 13.0525C111.764 13.0525 112.268 13.18 112.834 13.3725C112.867 13.3839 112.902 13.387 112.937 13.3816C112.971 13.3761 113.004 13.3624 113.032 13.3414C113.061 13.3204 113.084 13.2928 113.099 13.2609C113.115 13.229 113.123 13.1937 113.123 13.158L113.122 10.5638C113.123 10.5153 113.108 10.4679 113.08 10.4289C113.052 10.3899 113.012 10.3613 112.967 10.3475C112.371 10.166 111.608 9.98 110.463 9.98C107.682 9.98 106.208 11.5813 106.208 14.609V15.2605H104.761C104.703 15.2606 104.646 15.2844 104.605 15.3267C104.564 15.3689 104.54 15.4262 104.54 15.486V18.1455C104.54 18.2698 104.64 18.3713 104.761 18.3713H106.208V28.9305C106.208 29.0565 106.309 29.1565 106.43 29.1565H109.441C109.564 29.1565 109.662 29.0565 109.662 28.9305V18.3717H112.476L116.785 28.9303C116.297 30.0385 115.815 30.2595 115.158 30.2595C114.628 30.2595 114.067 30.098 113.497 29.777C113.443 29.7491 113.381 29.7431 113.323 29.7603C113.294 29.7702 113.267 29.7861 113.245 29.807C113.223 29.8278 113.205 29.8532 113.192 29.8815L112.171 32.1715C112.147 32.2235 112.144 32.2827 112.162 32.3371C112.179 32.3914 112.217 32.4368 112.266 32.464C113.332 33.0537 114.293 33.3058 115.482 33.3058C117.707 33.3058 118.938 32.2453 120.02 29.3965L125.247 15.5955C125.26 15.5614 125.265 15.5243 125.261 15.4877C125.257 15.4511 125.244 15.4161 125.224 15.386C125.204 15.3558 125.177 15.3311 125.146 15.314C125.115 15.2969 125.08 15.288 125.044 15.288H121.907C121.861 15.2877 121.816 15.3021 121.779 15.3293C121.741 15.3564 121.713 15.3948 121.698 15.4392L118.484 24.8165L114.965 15.433C114.95 15.3905 114.922 15.3539 114.885 15.3281C114.848 15.3022 114.805 15.2882 114.761 15.288H109.613V15.2875ZM102.916 15.274H99.902C99.8435 15.2743 99.7875 15.2981 99.7462 15.3403C99.7048 15.3825 99.6814 15.4398 99.6811 15.4995V28.9305C99.6811 29.0565 99.7812 29.1565 99.902 29.1565H102.916C103.037 29.1565 103.137 29.0565 103.137 28.9305V15.5005C103.137 15.4708 103.131 15.4414 103.12 15.4139C103.109 15.3865 103.093 15.3615 103.072 15.3406C103.052 15.3196 103.027 15.303 103 15.2917C102.974 15.2804 102.945 15.2746 102.916 15.2747V15.274ZM101.426 9.158C100.232 9.158 99.2644 10.1455 99.2644 11.365C99.2644 11.6551 99.3203 11.9424 99.4289 12.2104C99.5376 12.4784 99.6968 12.7219 99.8975 12.9271C100.098 13.1322 100.337 13.2949 100.599 13.4059C100.861 13.5169 101.142 13.574 101.426 13.574C102.62 13.574 103.586 12.5855 103.586 11.365C103.586 10.7798 103.358 10.2185 102.953 9.80465C102.548 9.39079 101.999 9.1582 101.426 9.158Z" fill="#1ED760"/>
</svg>
