<svg width="177" height="40" viewBox="0 0 177 40" fill="none" xmlns="http://www.w3.org/2000/svg">
<path d="M55.1344 6.18276C54.8111 4.98762 54.1802 3.89806 53.3047 3.02261C52.4292 2.14716 51.3396 1.51638 50.1444 1.1931C45.7689 0 28.1607 0 28.1607 0C28.1607 0 10.5517 0.0362069 6.17686 1.22931C4.98176 1.55264 3.89223 2.18345 3.01678 3.05889C2.14134 3.93433 1.51054 5.02387 1.1872 6.21897C-0.136245 13.9931 -0.649693 25.8383 1.22341 33.301C1.54674 34.4961 2.17755 35.5857 3.05299 36.4611C3.92843 37.3366 5.01797 37.9674 6.21307 38.2907C10.5882 39.4838 28.1969 39.4838 28.1969 39.4838C28.1969 39.4838 45.8055 39.4838 50.1807 38.2907C51.3758 37.9674 52.4653 37.3366 53.3407 36.4611C54.2162 35.5857 54.847 34.4961 55.1703 33.301C56.5658 25.5162 56.9962 13.6783 55.1341 6.1831" fill="#FF0000"/>
<path d="M22.5562 28.203L37.1637 19.7423L22.5562 11.2812V28.203Z" fill="white"/>
<path d="M169.392 11.4619C171.308 11.4619 172.754 11.8233 173.767 12.5102C174.779 13.1973 175.503 14.2822 175.937 15.7647C176.37 17.2471 176.551 19.2716 176.551 21.875V26.1057H167.259V27.4071L167.403 30.9868C167.512 31.7823 167.693 32.3609 167.982 32.7223C168.271 33.084 168.741 33.2647 169.356 33.2647C170.188 33.2647 170.766 32.9395 171.055 32.2888C171.381 31.6378 171.525 30.553 171.561 29.0705L176.37 29.3599C176.407 29.5768 176.407 29.8661 176.407 30.2274C176.407 32.5054 175.792 34.205 174.526 35.3257C173.261 36.4464 171.525 37.025 169.247 37.025C166.499 37.025 164.583 36.1574 163.498 34.4581C162.414 32.7585 161.835 30.0826 161.835 26.5033V22.1281C161.958 15.9816 163.039 11.4799 169.392 11.4619ZM102.537 11.9319V30.0468C102.537 31.1316 102.645 31.9271 102.898 32.3971C103.412 33.4023 104.742 33.1454 105.466 32.6502C105.883 32.3679 106.219 31.9816 106.442 31.5295V11.9316H111.974V36.6271H107.635L107.165 33.5899H107.057C105.863 35.8678 104.091 37.0247 101.741 37.0247C98.1241 37.0157 97.239 34.4095 97.0283 31.7626L97.0145 31.5761C96.9884 31.1752 96.9731 30.7736 96.9686 30.3719V11.9319H102.537ZM131.065 11.9319V30.0468C131.065 31.1316 131.173 31.9271 131.427 32.3971C131.94 33.4023 133.271 33.1454 133.994 32.6502C134.411 32.3679 134.748 31.9816 134.97 31.5295V11.9316H140.502V36.6271H136.163L135.693 33.5899H135.585C134.392 35.8678 132.62 37.0247 130.27 37.0247C126.652 37.0157 125.767 34.4095 125.557 31.7626L125.543 31.5761C125.517 31.1752 125.501 30.7736 125.497 30.3719V11.9319H131.065ZM86.4828 11.4619C88.2907 11.4619 89.7731 11.8233 90.8579 12.5826C91.9424 13.3419 92.7741 14.4992 93.2803 16.0899C93.7865 17.6809 94.0396 19.814 94.0396 22.4537V26.033C94.0396 28.6726 93.7865 30.7699 93.2803 32.3605C92.7741 33.9519 91.9786 35.1088 90.8579 35.8681C89.7372 36.5912 88.2183 36.9888 86.3383 36.9888C84.3855 37.025 82.8669 36.6274 81.7462 35.9043C80.6255 35.145 79.8296 33.9878 79.36 32.3971C78.8896 30.8061 78.6728 28.7088 78.6728 26.0695V22.4895C78.6728 19.8499 78.9259 17.6805 79.4683 16.0895C80.0107 14.4626 80.8421 13.3054 81.9993 12.5826C83.1562 11.8592 84.6386 11.4616 86.4828 11.4616M149.18 1.55469V14.5712H149.216C149.722 13.6312 150.373 12.8719 151.277 12.2933C152.122 11.7259 153.116 11.4238 154.133 11.4257C155.471 11.4257 156.484 11.7871 157.243 12.474C158.002 13.1974 158.545 14.3181 158.87 15.873C159.186 17.3792 159.365 19.4623 159.376 22.0892L159.376 22.3454V26.2502C159.376 29.9019 158.906 32.614 158.038 34.3495C157.135 36.085 155.761 36.953 153.88 36.953C152.832 36.953 151.892 36.6999 151.024 36.2299C150.257 35.7824 149.621 35.1412 149.179 34.3706L149.108 34.2409H148.999L148.421 36.5912H143.829V1.55503L149.18 1.55469ZM127.051 2.8202V7.30331H121.556V36.6271H116.132V7.30365H110.6V2.82055L127.051 2.8202ZM67.4276 2.8202L67.431 2.834C67.4838 3.06883 68.2148 6.31883 69.019 10.1054L69.0824 10.4054L69.1783 10.8588L69.2424 11.1633L69.2745 11.3161L69.3386 11.6223L69.3707 11.7757L69.4345 12.083L69.5276 12.5323C70.0707 15.1543 70.589 17.784 70.899 19.6695H71.0438C71.3407 17.9781 71.7721 15.8137 72.2321 13.6037L72.3528 13.0264C72.4132 12.7372 72.4741 12.4485 72.5355 12.1602L72.63 11.713C73.2546 8.78429 73.898 5.85963 74.56 2.93917L74.5703 2.89262L74.5869 2.8202H80.119L73.719 25.6357V36.5912H68.2593V25.6716H68.2231L61.8955 2.81986L67.4276 2.8202ZM86.3741 15.2943C85.6148 15.2943 85.1086 15.6923 84.7834 16.524C84.4583 17.3557 84.3134 18.6209 84.3134 20.393V28.0943C84.3134 29.9023 84.4579 31.2399 84.7472 32.0357C85.0367 32.8311 85.579 33.2288 86.3741 33.2288C87.1334 33.2288 87.6759 32.8311 88.0014 32.0357C88.3269 31.2399 88.4714 29.9023 88.4714 28.0943V20.3926C88.4714 18.6209 88.3265 17.3192 88.0014 16.5237C87.6759 15.6923 87.1334 15.2943 86.3741 15.2943ZM150.156 16.0178C149.716 16.4247 149.402 16.9264 149.216 17.5537L149.18 17.6809V31.7099C149.628 32.4692 150.265 32.9754 151.386 33.0116C151.964 33.0116 152.434 32.7947 152.796 32.3609C153.157 31.9271 153.41 31.2039 153.555 30.1912C153.694 29.2195 153.766 27.8811 153.772 26.1761V22.743C153.772 20.7906 153.699 19.3081 153.591 18.2595C153.446 17.2109 153.266 16.4516 152.94 16.0178C152.311 15.1137 150.952 15.1247 150.156 16.0178ZM169.284 15.1861C168.669 15.2222 168.235 15.403 167.982 15.7285C167.693 16.0899 167.512 16.6323 167.403 17.4278C167.297 18.2071 167.26 20.9312 167.259 21.0402V22.8154H171.308V21.2499V21.2799C171.306 21.8271 171.294 20.9623 171.27 19.9006L171.266 19.7578C171.243 18.8247 171.21 17.7843 171.164 17.4278C171.055 16.5961 170.874 16.0174 170.585 15.6923C170.296 15.3668 169.862 15.1861 169.283 15.1861" fill="#282828"/>
</svg>
